<svg xmlns="http://www.w3.org/2000/svg" xmlns:xlink="http://www.w3.org/1999/xlink" version="1.1" x="0px" y="0px" viewBox="0 0 2000 2000" style="enable-background:new 0 0 2000 2000;" xml:space="preserve" width="2000"  height="2000" >
<g id="Layer_3">
	<path class="st1" d="M1898.4,617.5c8-20.2,11.7-33.4,12-34.7l66.5-241.7l-126,180.2c-43.5-77.2-97.3-148.1-160.7-211.5   c-89.7-89.7-194.1-160.1-310.4-209.3c-120.4-50.9-248.3-76.8-380.2-76.8c-131.8,0-259.7,25.8-380.2,76.8   c-116.3,49.2-220.7,119.6-310.4,209.3C219.4,399.4,149,503.9,99.8,620.2C48.8,740.6,23,868.5,23,1000.3   c0,131.8,25.8,259.7,76.8,380.2c49.2,116.3,119.6,220.7,209.3,310.4c89.7,89.7,194.1,160.1,310.4,209.3   c120.4,50.9,248.3,76.8,380.2,76.8c131.8,0,259.7-25.8,380.2-76.8c116.3-49.2,220.7-119.6,310.4-209.3   c89.7-89.7,160.1-194.1,209.3-310.4c50.9-120.4,76.8-248.3,76.8-380.2c0-131.8-25.8-259.7-76.8-380.2   C1899.2,619.3,1898.8,618.4,1898.4,617.5z M1790.5,592c-44.6,35.2-105.4,54.7-184.1,59.2c-97.7,5.6-201.3-12.8-284.6-27.6   c-38.3-6.8-71.9-12.8-98.3-15.1c11.3-21.9,16.8-37.4,17.4-39l0.8-2.3l0.5-2.4c23.2-100.8,2.2-201,1.3-205.3l-48.9-227.9   C1454.1,189.9,1671.1,361.7,1790.5,592z M1209.8,841.3c-0.2,4.9-3.6,54-53.9,128.1c-43.2,63.6-77.1,105.7-184,130.3   c18.7-40.1,27.3-78.4,25.7-113.9c-2.4-53.2-7.1-88.3-10.7-108.3c13.6-19.3,40.3-55.5,73.9-91.1c58.3-61.8,111.4-94.6,149.5-92.2   c22.6,1.4,56.7,7.5,96.2,14.5c73.5,13.1,167.9,29.9,262.8,29.9c57.2,0,114.5-6.1,167.3-22.8c-56.3,58.8-125.7,85.6-206.7,79.7   c-111.3-8.2-192.8-10.3-242.2-6.2c-36.8,3-62,9.4-73.3,31.7l-5.4,8.9L1209.8,841.3z M999.7,1890.5   c-490.8,0-890.2-399.3-890.2-890.2s399.3-890.2,890.2-890.2c59.7,0,118.1,5.9,174.6,17.2L1158,365.8c-2.8,40.9-24.4,156.9-89.8,201   c-89.3,60.3-281.1,98.5-283,98.9l-25.3,5l-108.5,347.2l-12.6,34.9l-0.4,6.3c-0.1,1.5-9.5,149.7-87.2,267.2   c-80.3,121.5-162.7,194.1-163.5,194.8l-33.5,29.1l29.9,32.7c3.9,4.3,40.4,42.9,105.4,69.5c32.1,13.1,74.6,24.5,125.5,24.5   c45.1,0,96.8-9,153.6-33.6c164.8-71.3,233.7-128.1,258.8-153.4c26.5-6.2,89.7-20.5,143.2-28.6c24.2-3.7,68.6-18.3,173.9-101.9   c45.4-36,84.1-70.7,97.1-82.6c22.5-10.7,126.5-55.5,207.6-13.5c56.7,29.3,93.5,97,109.5,201.1   C1602.4,1719.8,1320.6,1890.5,999.7,1890.5z M1819.2,1347.9c-27.6-77.1-71.2-131.3-130.4-161.7c-131.5-67.7-285.4,13-291.9,16.5   l-4.9,2.6l-4.1,3.7c-0.4,0.4-45,41.4-97.3,83c-94.3,74.9-127.1,82.9-132.7,83.8c-73.2,11.2-159.8,32.3-163.4,33.2l-15.4,2.3   l-9.1,13.9c-4.6,5.4-55.7,61-235.4,138.8c-120.2,52.1-208.3,16.2-253.1-13c34.4-35.2,88.4-95.7,142.2-177.1   c81.3-123.1,98-270.1,100.9-303.2l9.1-25.3l93.8-300.3c46.9-10.5,149-36,230.9-74.3c-19.7,15.8-39.8,34.5-60.2,56.2   c-54.3,57.6-91.8,115.4-93.4,117.9L893.7,861l5.5,18.9c0.6,2.4,8.8,36,12,109.7c2.4,54.5-42,119.5-59.3,140l-71.1,83.2l108.8-12.2   c98.8-11.1,166.3-29.9,218.7-61c50.9-30.2,84.5-70.5,119.2-121.7c41.6-61.3,58.2-111,64.7-142.4c27.9-2.5,91.7-4.1,231.5,6.1   c122.9,9,229.1-40.5,307.2-143.3c4.8-6.3,9.3-12.6,13.6-18.8c29.4,88.3,45.4,182.7,45.4,280.8   C1889.8,1123.6,1864.6,1241.1,1819.2,1347.9z"/>
	<path class="st1" d="M724.6,1412.7c0,0,48.1-54.4,104.3-68.6c56.2-14.1,118.2-98.9,118.2-98.9s-21.7,111.9-73,141.8   C822.7,1417,724.6,1412.7,724.6,1412.7z"/>
</g>
</svg>